<svg xmlns="http://www.w3.org/2000/svg" version="1.1" xmlns:xlink="http://www.w3.org/1999/xlink" xmlns:svgjs="http://svgjs.dev/svgjs" width="1500" height="299" viewBox="0 0 1500 299"><g transform="matrix(1,0,0,1,-0.9090909090911055,-0.6770231109234999)"><svg viewBox="0 0 396 79" data-background-color="#ffffff" preserveAspectRatio="xMidYMid meet" height="299" width="1500" xmlns="http://www.w3.org/2000/svg" xmlns:xlink="http://www.w3.org/1999/xlink"><g id="tight-bounds" transform="matrix(1,0,0,1,0.24000000000003752,0.17887901592962407)"><svg viewBox="0 0 395.5199999999999 78.64224196814072" height="78.64224196814072" width="395.5199999999999"><g><svg viewBox="0 0 573.2419823429609 113.97915322034737" height="78.64224196814072" width="395.5199999999999"><g><rect width="6.557450818809032" height="113.97915322034737" x="153.99842990423292" y="0" fill="#233565" opacity="1" stroke-width="0" stroke="transparent" fill-opacity="1" class="rect-qz-0" data-fill-palette-color="primary" rx="1%" id="qz-0" data-palette-color="#233565"></rect></g><g transform="matrix(1,0,0,1,177.72198234296087,0.2835302318914046)"><svg viewBox="0 0 395.52 113.41209275656456" height="113.41209275656456" width="395.52"><g id="textblocktransform"><svg viewBox="0 0 395.52 113.41209275656456" height="113.41209275656456" width="395.52" id="textblock"><g><svg viewBox="0 0 395.52 72.7143022582513" height="72.7143022582513" width="395.52"><g transform="matrix(1,0,0,1,0,0)"><svg width="395.52" viewBox="1.2 -36.55 252.95000000000002 46.51" height="72.7143022582513" data-palette-color="#233565"><path d="M1.2-24.51L1.2-24.51Q1.2-26.68 2.03-28.59 2.86-30.49 4.28-31.92 5.71-33.35 7.62-34.18 9.52-35.01 11.69-35.01L11.69-35.01 27.76-35.01 27.76-28 11.69-28Q10.96-28 10.33-27.73 9.69-27.47 9.22-26.99 8.74-26.51 8.47-25.88 8.2-25.24 8.2-24.51L8.2-24.51Q8.2-23.78 8.47-23.13 8.74-22.49 9.22-22.01 9.69-21.53 10.33-21.26 10.96-21 11.69-21L11.69-21 18.7-21Q20.87-21 22.79-20.18 24.71-19.36 26.14-17.93 27.56-16.5 28.38-14.59 29.2-12.67 29.2-10.5L29.2-10.5Q29.2-8.33 28.38-6.42 27.56-4.52 26.14-3.09 24.71-1.66 22.79-0.83 20.87 0 18.7 0L18.7 0 3.15 0 3.15-7.01 18.7-7.01Q19.43-7.01 20.07-7.28 20.7-7.54 21.18-8.02 21.66-8.5 21.92-9.13 22.19-9.77 22.19-10.5L22.19-10.5Q22.19-11.23 21.92-11.87 21.66-12.5 21.18-12.98 20.7-13.45 20.07-13.72 19.43-13.99 18.7-13.99L18.7-13.99 11.69-13.99Q9.52-13.99 7.62-14.82 5.71-15.65 4.28-17.08 2.86-18.51 2.03-20.42 1.2-22.34 1.2-24.51ZM58.4-26.1L58.4 9.96 51.68 9.96 51.68-1.76Q50.93-1.32 50.13-0.9 49.34-0.49 48.5-0.16 47.65 0.17 46.79 0.37 45.92 0.56 45.04 0.56L45.04 0.56Q42.28 0.56 39.85-0.45 37.42-1.46 35.61-3.3 33.79-5.13 32.74-7.68 31.69-10.23 31.69-13.31L31.69-13.31Q31.69-16.41 32.74-18.96 33.79-21.51 35.61-23.32 37.42-25.12 39.85-26.11 42.28-27.1 45.04-27.1L45.04-27.1Q46.31-27.1 47.54-26.78 48.78-26.46 49.95-25.92 51.12-25.37 52.18-24.61 53.24-23.85 54.2-23L54.2-23 56.78-26.1 58.4-26.1ZM51.68-13.31L51.68-13.31Q51.68-14.67 51.16-15.95 50.63-17.24 49.73-18.23 48.83-19.21 47.62-19.81 46.41-20.41 45.04-20.41L45.04-20.41Q43.67-20.41 42.47-19.91 41.26-19.41 40.37-18.48 39.48-17.55 38.96-16.25 38.45-14.94 38.45-13.31L38.45-13.31Q38.45-11.62 38.96-10.29 39.48-8.96 40.37-8.06 41.26-7.15 42.47-6.68 43.67-6.2 45.04-6.2L45.04-6.2Q46.41-6.2 47.62-6.8 48.83-7.4 49.73-8.39 50.63-9.38 51.16-10.66 51.68-11.94 51.68-13.31ZM84.88 0L82.69-3.05Q81.88-2.32 80.96-1.67 80.05-1.03 79.05-0.55 78.05-0.07 76.98 0.21 75.92 0.49 74.82 0.49L74.82 0.49Q72.41 0.49 70.28-0.37 68.16-1.22 66.56-2.8 64.96-4.37 64.05-6.63 63.13-8.89 63.13-11.69L63.13-11.69 63.13-26.15 69.77-26.15 69.77-11.69Q69.77-10.38 70.17-9.34 70.58-8.3 71.26-7.59 71.94-6.88 72.86-6.52 73.77-6.15 74.82-6.15L74.82-6.15Q75.85-6.15 76.77-6.63 77.68-7.1 78.36-7.89 79.05-8.67 79.44-9.66 79.83-10.64 79.83-11.69L79.83-11.69 79.83-26.15 86.49-26.15 86.49 0 84.88 0ZM116.89-26.1L116.89 0 115.28 0 112.69-3.59Q111.74-2.73 110.67-1.99 109.61-1.25 108.44-0.7 107.27-0.15 106.03 0.17 104.8 0.49 103.53 0.49L103.53 0.49Q100.77 0.49 98.34-0.44 95.92-1.37 94.1-3.14 92.28-4.91 91.23-7.47 90.18-10.03 90.18-13.31L90.18-13.31Q90.18-16.36 91.23-18.91 92.28-21.46 94.1-23.29 95.92-25.12 98.34-26.14 100.77-27.15 103.53-27.15L103.53-27.15Q104.8-27.15 106.05-26.83 107.29-26.51 108.46-25.95 109.64-25.39 110.7-24.63 111.76-23.88 112.69-23L112.69-23 115.28-26.1 116.89-26.1ZM110.17-13.31L110.17-13.31Q110.17-14.67 109.65-15.95 109.12-17.24 108.22-18.23 107.32-19.21 106.11-19.81 104.9-20.41 103.53-20.41L103.53-20.41Q102.17-20.41 100.96-19.95 99.75-19.48 98.86-18.58 97.97-17.68 97.45-16.35 96.94-15.01 96.94-13.31L96.94-13.31Q96.94-11.6 97.45-10.27 97.97-8.94 98.86-8.03 99.75-7.13 100.96-6.67 102.17-6.2 103.53-6.2L103.53-6.2Q104.9-6.2 106.11-6.8 107.32-7.4 108.22-8.39 109.12-9.38 109.65-10.66 110.17-11.94 110.17-13.31ZM147.23-36.55L147.23 0 145.62 0 143.03-3.59Q142.08-2.73 141.02-1.99 139.96-1.25 138.78-0.7 137.61-0.15 136.38 0.17 135.15 0.49 133.88 0.49L133.88 0.49Q131.12 0.49 128.69-0.55 126.26-1.59 124.44-3.43 122.62-5.27 121.57-7.8 120.52-10.33 120.52-13.31L120.52-13.31Q120.52-16.26 121.57-18.8 122.62-21.34 124.44-23.19 126.26-25.05 128.69-26.1 131.12-27.15 133.88-27.15L133.88-27.15Q134.76-27.15 135.7-27 136.64-26.86 137.53-26.53 138.42-26.2 139.2-25.66 139.98-25.12 140.52-24.34L140.52-24.34 140.52-36.55 147.23-36.55ZM140.52-13.31L140.52-13.31Q140.52-14.67 139.99-15.95 139.47-17.24 138.56-18.23 137.66-19.21 136.45-19.81 135.24-20.41 133.88-20.41L133.88-20.41Q132.51-20.41 131.3-19.92 130.09-19.43 129.2-18.52 128.31-17.6 127.8-16.28 127.28-14.97 127.28-13.31L127.28-13.31Q127.28-11.87 127.8-10.57 128.31-9.28 129.2-8.3 130.09-7.32 131.3-6.76 132.51-6.2 133.88-6.2L133.88-6.2Q135.24-6.2 136.45-6.8 137.66-7.4 138.56-8.39 139.47-9.38 139.99-10.66 140.52-11.94 140.52-13.31ZM160.02-13.99L160.02 0 153.01 0 153.01-35.01 177.53-35.01 177.53-28 160.02-28 160.02-21 170.52-21 170.52-13.99 160.02-13.99ZM187.12-36.55L187.12 0 180.4 0 180.4-36.55 187.12-36.55ZM217.46-13.31L217.46-13.31Q217.46-10.38 216.41-7.85 215.36-5.32 213.56-3.48 211.75-1.64 209.32-0.57 206.89 0.49 204.11 0.49L204.11 0.49Q201.35 0.49 198.92-0.57 196.49-1.64 194.67-3.48 192.85-5.32 191.8-7.85 190.75-10.38 190.75-13.31L190.75-13.31Q190.75-16.28 191.8-18.82 192.85-21.36 194.67-23.21 196.49-25.05 198.92-26.1 201.35-27.15 204.11-27.15L204.11-27.15Q206.89-27.15 209.32-26.16 211.75-25.17 213.56-23.35 215.36-21.53 216.41-18.98 217.46-16.43 217.46-13.31ZM210.75-13.31L210.75-13.31Q210.75-14.92 210.22-16.22 209.7-17.53 208.8-18.47 207.89-19.41 206.68-19.91 205.48-20.41 204.11-20.41L204.11-20.41Q202.74-20.41 201.53-19.91 200.32-19.41 199.43-18.47 198.54-17.53 198.03-16.22 197.52-14.92 197.52-13.31L197.52-13.31Q197.52-11.79 198.03-10.5 198.54-9.2 199.43-8.25 200.32-7.3 201.53-6.75 202.74-6.2 204.11-6.2L204.11-6.2Q205.48-6.2 206.68-6.71 207.89-7.23 208.8-8.15 209.7-9.08 210.22-10.4 210.75-11.72 210.75-13.31ZM254.15-26.1L254.15-9.45Q254.15-7.4 253.37-5.58 252.59-3.76 251.24-2.42 249.88-1.07 248.06-0.29 246.24 0.49 244.17 0.49L244.17 0.49Q242.31 0.49 240.61-0.16 238.9-0.81 237.5-2.05L237.5-2.05Q236.14-0.81 234.44-0.16 232.74 0.49 230.86 0.49L230.86 0.49Q228.79 0.49 226.98-0.29 225.18-1.07 223.82-2.42 222.47-3.76 221.68-5.58 220.9-7.4 220.9-9.45L220.9-9.45 220.9-26.1 227.57-26.1 227.57-9.45Q227.57-8.76 227.82-8.17 228.08-7.57 228.53-7.12 228.98-6.67 229.58-6.41 230.18-6.15 230.86-6.15L230.86-6.15Q231.55-6.15 232.16-6.41 232.77-6.67 233.23-7.12 233.7-7.57 233.95-8.17 234.21-8.76 234.21-9.45L234.21-9.45 234.21-26.1 240.85-26.1 240.85-9.45Q240.85-8.76 241.12-8.17 241.39-7.57 241.84-7.12 242.29-6.67 242.89-6.41 243.49-6.15 244.17-6.15L244.17-6.15Q244.85-6.15 245.46-6.41 246.07-6.67 246.53-7.12 246.98-7.57 247.25-8.17 247.51-8.76 247.51-9.45L247.51-9.45 247.51-26.1 254.15-26.1Z" opacity="1" transform="matrix(1,0,0,1,0,0)" fill="#233565" class="wordmark-text-0" data-fill-palette-color="primary" id="text-0"></path></svg></g></svg></g><g transform="matrix(1,0,0,1,0,89.88040387817023)"><svg viewBox="0 0 232.209792 23.531688878394334" height="23.531688878394334" width="232.209792"><g transform="matrix(1,0,0,1,0,0)"><svg width="232.209792" viewBox="2 -35.35 381.11 38.625" height="23.531688878394334" data-palette-color="#233565"><path d="M18.35 0L2.2 0Q2 0 2-0.25L2-0.25 2.05-34.6Q2.05-34.8 2.25-34.8L2.25-34.8 18.3-34.8Q18.5-34.8 18.5-34.55L18.5-34.55 18.5-28.95Q18.5-28.75 18.3-28.75L18.3-28.75 8.05-28.75 8.05-20.95 18.3-20.95Q18.5-20.95 18.5-20.75L18.5-20.75 18.55-15.1Q18.55-14.9 18.35-14.9L18.35-14.9 8.05-14.9 8.05-6.15 18.35-6.15Q18.55-6.15 18.55-5.9L18.55-5.9 18.55-0.2Q18.55 0 18.35 0L18.35 0ZM28.85 0L23.2 0Q23 0 23-0.25L23-0.25 23.1-34.6Q23.1-34.8 23.3-34.8L23.3-34.8 29.4-34.8Q29.6-34.8 29.75-34.6L29.75-34.6 34.3-28 38.85-34.6Q39-34.8 39.2-34.8L39.2-34.8 45.35-34.8Q45.55-34.8 45.55-34.6L45.55-34.6 45.65-0.25Q45.65 0 45.45 0L45.45 0 39.8 0Q39.6 0 39.6-0.25L39.6-0.25 39.55-25.75 34.3-18.15 29.1-25.75 29.05-0.25Q29.05 0 28.85 0L28.85 0ZM55.7 0L50.09 0Q49.84 0 49.84-0.25L49.84-0.25 49.95-34.6Q49.95-34.8 50.14-34.8L50.14-34.8 59.74-34.8Q64.34-34.8 67.02-32 69.69-29.2 69.69-24.4L69.69-24.4Q69.69-20.85 68.3-18.25 66.89-15.65 64.64-14.25 62.39-12.85 59.74-12.85L59.74-12.85 55.95-12.85 55.95-0.25Q55.95 0 55.7 0L55.7 0ZM55.95-28.8L55.95-18.9 59.74-18.9Q61.34-18.9 62.52-20.43 63.7-21.95 63.7-24.4L63.7-24.4Q63.7-26.35 62.64-27.6 61.59-28.85 59.74-28.85L59.74-28.85 55.95-28.8ZM81.84 0.5L81.84 0.5Q79.14 0.5 76.92-0.88 74.69-2.25 73.34-4.53 71.99-6.8 71.99-9.55L71.99-9.55 72.04-25.4Q72.04-28.15 73.37-30.4 74.69-32.65 76.94-34 79.19-35.35 81.84-35.35L81.84-35.35Q84.54-35.35 86.74-34 88.94-32.65 90.27-30.4 91.59-28.15 91.59-25.4L91.59-25.4 91.64-9.55Q91.64-6.8 90.32-4.53 88.99-2.25 86.77-0.88 84.54 0.5 81.84 0.5ZM81.84-5.55L81.84-5.55Q83.34-5.55 84.47-6.78 85.59-8 85.59-9.55L85.59-9.55 85.54-25.4Q85.54-27.05 84.49-28.2 83.44-29.35 81.84-29.35L81.84-29.35Q80.29-29.35 79.19-28.23 78.09-27.1 78.09-25.4L78.09-25.4 78.09-9.55Q78.09-7.9 79.19-6.73 80.29-5.55 81.84-5.55ZM105.19 0L99.14 0Q98.94 0 98.89-0.25L98.89-0.25 92.99-34.6Q92.94-34.8 93.14-34.8L93.14-34.8 98.74-34.8Q98.94-34.8 98.99-34.6L98.99-34.6 102.19-12 105.49-34.6Q105.54-34.8 105.79-34.8L105.79-34.8 110.29-34.8Q110.49-34.8 110.54-34.6L110.54-34.6 113.79-12 117.04-34.6Q117.09-34.8 117.29-34.8L117.29-34.8 122.84-34.8Q123.09-34.8 123.04-34.6L123.04-34.6 117.09-0.25Q117.04-0.15 116.94-0.08 116.84 0 116.84 0L116.84 0 110.79 0Q110.64 0 110.54-0.25L110.54-0.25 107.99-18.2 105.44-0.25Q105.39 0 105.19 0L105.19 0ZM142.34 0L126.19 0Q125.99 0 125.99-0.25L125.99-0.25 126.04-34.6Q126.04-34.8 126.24-34.8L126.24-34.8 142.29-34.8Q142.49-34.8 142.49-34.55L142.49-34.55 142.49-28.95Q142.49-28.75 142.29-28.75L142.29-28.75 132.04-28.75 132.04-20.95 142.29-20.95Q142.49-20.95 142.49-20.75L142.49-20.75 142.54-15.1Q142.54-14.9 142.34-14.9L142.34-14.9 132.04-14.9 132.04-6.15 142.34-6.15Q142.54-6.15 142.54-5.9L142.54-5.9 142.54-0.2Q142.54 0 142.34 0L142.34 0ZM152.84 0L147.19 0Q146.99 0 146.99-0.25L146.99-0.25 147.09-34.6Q147.09-34.8 147.29-34.8L147.29-34.8 157.39-34.8Q160.09-34.8 162.36-33.48 164.64-32.15 165.99-29.93 167.34-27.7 167.34-24.9L167.34-24.9Q167.34-23.05 166.79-21.58 166.24-20.1 165.49-19.07 164.74-18.05 164.14-17.55L164.14-17.55Q166.84-14.55 166.84-10.5L166.84-10.5 166.89-0.25Q166.89 0 166.64 0L166.64 0 160.99 0Q160.79 0 160.79-0.15L160.79-0.15 160.79-10.5Q160.79-12.3 159.51-13.63 158.24-14.95 156.39-14.95L156.39-14.95 153.09-14.95 153.04-0.25Q153.04 0 152.84 0L152.84 0ZM153.09-28.8L153.09-20.95 157.39-20.95Q158.94-20.95 160.14-22.1 161.34-23.25 161.34-24.9L161.34-24.9Q161.34-26.5 160.16-27.65 158.99-28.8 157.39-28.8L157.39-28.8 153.09-28.8ZM188.88 0L183.13 0Q182.98 0 182.98-0.2L182.98-0.2 183.03-14.4 176.33-34.6Q176.28-34.8 176.48-34.8L176.48-34.8 182.03-34.8Q182.28-34.8 182.33-34.6L182.33-34.6 186.03-21.15 189.78-34.6Q189.83-34.8 190.03-34.8L190.03-34.8 195.63-34.8Q195.83-34.8 195.78-34.6L195.78-34.6 189.03-14.6 189.08-0.2Q189.08 0 188.88 0L188.88 0ZM206.13 0.5L206.13 0.5Q203.43 0.5 201.2-0.88 198.98-2.25 197.63-4.53 196.28-6.8 196.28-9.55L196.28-9.55 196.33-25.4Q196.33-28.15 197.65-30.4 198.98-32.65 201.23-34 203.48-35.35 206.13-35.35L206.13-35.35Q208.83-35.35 211.03-34 213.23-32.65 214.55-30.4 215.88-28.15 215.88-25.4L215.88-25.4 215.93-9.55Q215.93-6.8 214.6-4.53 213.28-2.25 211.05-0.88 208.83 0.5 206.13 0.5ZM206.13-5.55L206.13-5.55Q207.63-5.55 208.75-6.78 209.88-8 209.88-9.55L209.88-9.55 209.83-25.4Q209.83-27.05 208.78-28.2 207.73-29.35 206.13-29.35L206.13-29.35Q204.58-29.35 203.48-28.23 202.38-27.1 202.38-25.4L202.38-25.4 202.38-9.55Q202.38-7.9 203.48-6.73 204.58-5.55 206.13-5.55ZM229.23 0.5L229.23 0.5Q226.58 0.5 224.33-0.88 222.08-2.25 220.75-4.55 219.43-6.85 219.43-9.6L219.43-9.6 219.53-34.6Q219.53-34.8 219.73-34.8L219.73-34.8 225.33-34.8Q225.53-34.8 225.53-34.6L225.53-34.6 225.53-9.6Q225.53-7.9 226.6-6.73 227.68-5.55 229.23-5.55L229.23-5.55Q230.83-5.55 231.9-6.73 232.98-7.9 232.98-9.6L232.98-9.6 232.98-34.6Q232.98-34.8 233.18-34.8L233.18-34.8 238.78-34.8Q238.98-34.8 238.98-34.6L238.98-34.6 239.08-9.6Q239.08-6.8 237.75-4.5 236.43-2.2 234.2-0.85 231.98 0.5 229.23 0.5ZM248.87 0L243.22 0Q243.02 0 243.02-0.25L243.02-0.25 243.12-34.6Q243.12-34.8 243.32-34.8L243.32-34.8 253.42-34.8Q256.12-34.8 258.4-33.48 260.67-32.15 262.02-29.93 263.37-27.7 263.37-24.9L263.37-24.9Q263.37-23.05 262.82-21.58 262.27-20.1 261.52-19.07 260.77-18.05 260.17-17.55L260.17-17.55Q262.87-14.55 262.87-10.5L262.87-10.5 262.92-0.25Q262.92 0 262.67 0L262.67 0 257.02 0Q256.82 0 256.82-0.15L256.82-0.15 256.82-10.5Q256.82-12.3 255.55-13.63 254.27-14.95 252.42-14.95L252.42-14.95 249.12-14.95 249.07-0.25Q249.07 0 248.87 0L248.87 0ZM249.12-28.8L249.12-20.95 253.42-20.95Q254.97-20.95 256.17-22.1 257.37-23.25 257.37-24.9L257.37-24.9Q257.37-26.5 256.2-27.65 255.02-28.8 253.42-28.8L253.42-28.8 249.12-28.8ZM283.02 0.5L283.02 0.5Q280.32 0.5 278.09-0.88 275.87-2.25 274.54-4.53 273.22-6.8 273.22-9.55L273.22-9.55 273.22-11.85Q273.22-12.1 273.47-12.1L273.47-12.1 279.07-12.1Q279.27-12.1 279.27-11.85L279.27-11.85 279.27-9.55Q279.27-7.9 280.37-6.73 281.47-5.55 283.02-5.55L283.02-5.55Q284.57-5.55 285.67-6.75 286.77-7.95 286.77-9.55L286.77-9.55Q286.77-11.4 284.37-12.75L284.37-12.75Q283.57-13.2 281.87-14.15 280.17-15.1 278.67-15.95L278.67-15.95Q275.92-17.55 274.59-19.98 273.27-22.4 273.27-25.45L273.27-25.45Q273.27-28.25 274.62-30.48 275.97-32.7 278.19-34 280.42-35.3 283.02-35.3L283.02-35.3Q285.67-35.3 287.89-33.98 290.12-32.65 291.44-30.43 292.77-28.2 292.77-25.45L292.77-25.45 292.77-21.35Q292.77-21.15 292.57-21.15L292.57-21.15 286.97-21.15Q286.77-21.15 286.77-21.35L286.77-21.35 286.72-25.45Q286.72-27.2 285.62-28.3 284.52-29.4 283.02-29.4L283.02-29.4Q281.47-29.4 280.37-28.23 279.27-27.05 279.27-25.45L279.27-25.45Q279.27-23.8 279.97-22.7 280.67-21.6 282.52-20.6L282.52-20.6Q282.77-20.45 283.49-20.08 284.22-19.7 285.07-19.23 285.92-18.75 286.59-18.4 287.27-18.05 287.42-17.95L287.42-17.95Q289.92-16.55 291.37-14.53 292.82-12.5 292.82-9.55L292.82-9.55Q292.82-6.7 291.49-4.42 290.17-2.15 287.94-0.83 285.72 0.5 283.02 0.5ZM312.77 3.2L312.77 3.2 309.32-0.3Q307.52 0.5 305.57 0.5L305.57 0.5Q302.92 0.5 300.67-0.85 298.42-2.2 297.07-4.5 295.72-6.8 295.72-9.55L295.72-9.55 295.77-25.4Q295.77-28.05 297.07-30.33 298.37-32.6 300.59-33.98 302.82-35.35 305.57-35.35L305.57-35.35Q308.22-35.35 310.44-34.02 312.67-32.7 313.99-30.45 315.32-28.2 315.32-25.4L315.32-25.4 315.37-9.55Q315.37-8.1 314.97-6.75 314.57-5.4 313.92-4.25L313.92-4.25 317.02-1.1Q317.22-0.9 317.07-0.75L317.07-0.75 313.12 3.2Q312.92 3.35 312.77 3.2ZM305.57-5.55L305.57-5.55Q307.27-5.55 308.29-6.83 309.32-8.1 309.32-9.55L309.32-9.55 309.27-25.4Q309.27-27 308.22-28.18 307.17-29.35 305.57-29.35L305.57-29.35Q303.87-29.35 302.84-28.15 301.82-26.95 301.82-25.4L301.82-25.4 301.82-9.55Q301.82-7.75 302.99-6.65 304.17-5.55 305.57-5.55ZM329.11 0.5L329.11 0.5Q326.46 0.5 324.21-0.88 321.96-2.25 320.64-4.55 319.31-6.85 319.31-9.6L319.31-9.6 319.41-34.6Q319.41-34.8 319.61-34.8L319.61-34.8 325.21-34.8Q325.41-34.8 325.41-34.6L325.41-34.6 325.41-9.6Q325.41-7.9 326.49-6.73 327.56-5.55 329.11-5.55L329.11-5.55Q330.71-5.55 331.79-6.73 332.86-7.9 332.86-9.6L332.86-9.6 332.86-34.6Q332.86-34.8 333.06-34.8L333.06-34.8 338.66-34.8Q338.86-34.8 338.86-34.6L338.86-34.6 338.96-9.6Q338.96-6.8 337.64-4.5 336.31-2.2 334.09-0.85 331.86 0.5 329.11 0.5ZM340.41-0.25L340.41-0.25 346.61-34.6Q346.66-34.8 346.86-34.8L346.86-34.8 354.11-34.8Q354.31-34.8 354.36-34.6L354.36-34.6 360.31-0.25Q360.36 0 360.11 0L360.11 0 354.56 0Q354.36 0 354.31-0.25L354.31-0.25 353.76-3.9 346.96-3.9 346.41-0.25Q346.36 0 346.16 0L346.16 0 340.61 0Q340.41 0 340.41-0.25ZM350.21-23.3L347.96-9.25 352.76-9.25 350.71-23.3 350.41-25.15 350.21-23.3ZM372.66-0.05L363.71 0Q363.46 0 363.46-0.25L363.46-0.25 363.56-34.6Q363.56-34.8 363.76-34.8L363.76-34.8 373.11-34.85Q375.86-34.9 378.13-33.55 380.41-32.2 381.76-29.93 383.11-27.65 383.11-24.9L383.11-24.9 383.11-10.55Q383.11-7.65 381.71-5.28 380.31-2.9 377.96-1.5 375.61-0.1 372.66-0.05L372.66-0.05ZM369.61-28.8L369.56-6.15 372.66-6.15Q374.51-6.15 375.78-7.45 377.06-8.75 377.06-10.55L377.06-10.55 377.06-24.95Q377.06-26.55 375.88-27.73 374.71-28.9 373.11-28.85L373.11-28.85 369.61-28.8Z" opacity="1" transform="matrix(1,0,0,1,0,0)" fill="#233565" class="slogan-text-1" data-fill-palette-color="secondary" id="text-1"></path></svg></g></svg></g></svg></g></svg></g><g transform="matrix(1,0,0,1,0,0.2835302318913975)"><svg viewBox="0 0 136.83232828431397 113.41209275656458" height="113.41209275656458" width="136.83232828431397"><g><svg xmlns="http://www.w3.org/2000/svg" xmlns:xlink="http://www.w3.org/1999/xlink" version="1.1" x="0" y="0" viewBox="4.999750000000001 12.702050078871366 90.00023151553937 74.59578253717947" enable-background="new 0 0 100 100" xml:space="preserve" height="113.41209275656458" width="136.83232828431397" class="icon-icon-0" data-fill-palette-color="accent" id="icon-0"><path fill-rule="evenodd" clip-rule="evenodd" fill="#8bd8bc" d="M91.497 12.704H8.512c-4.683 0-4.683 22.308 0 22.308H18.7v23.002c0.158 0.279 0.334 0.547 0.527 0.799l0.028 9.225L10.22 78.175c-2.013 2.26-1.811 5.725 0.449 7.737 1.153 1.024 2.617 1.476 4.043 1.371h10.17c0-2.34-1.466-4.338-3.531-5.127l7.469-8.378c0.058-0.065 0.115-0.133 0.17-0.201l0.055 8.264c0.012 3.003 2.446 5.431 5.444 5.442h0.041 10.932c0-3.029-2.457-5.486-5.486-5.486l-0.078-11.608c-0.005-1.151-0.367-2.219-0.979-3.098l-5.69-9.077V40.468l6.921 0.01c2.263 0 3.77-2.013 4.098-4.101l0.281-1.366h14.828v23.002c0.155 0.279 0.332 0.547 0.524 0.799l0.029 9.225-9.036 10.138c-2.013 2.26-1.811 5.725 0.449 7.737 1.153 1.024 2.617 1.476 4.045 1.371h10.169c0-2.34-1.467-4.338-3.53-5.127l7.468-8.378c0.058-0.065 0.114-0.133 0.17-0.201l0.056 8.264c0.012 3.003 2.444 5.431 5.442 5.442h0.041 10.932c0-3.029-2.457-5.486-5.486-5.486l-0.077-11.608c-0.005-1.151-0.367-2.219-0.979-3.098l-5.69-9.077V40.468l6.921 0.01c2.263 0 3.771-2.013 4.098-4.101l0.284-1.366H91.5C96.217 35.011 96.117 12.461 91.497 12.704zM43.497 26.473l-1.95 9.414-0.01 0.065c-0.104 0.665-0.583 1.782-1.386 1.782l-9.667-0.01v17.545h-9.042V35.013l16.567 0.007 2.806-8.426c0.257-0.667 0.792-2.43 1.697-2.315C43.72 24.434 43.708 25.449 43.497 26.473zM84.151 26.473l-1.949 9.414-0.01 0.065c-0.106 0.665-0.58 1.782-1.386 1.782l-9.667-0.01v17.545H62.1V35.013l16.565 0.007 2.809-8.426c0.255-0.667 0.792-2.43 1.694-2.315C84.375 24.434 84.362 25.449 84.151 26.473zM90.935 32.268h-5.181l1.082-5.239c0.552-2.66-0.435-5.103-3.32-5.469-2.578-0.328-3.717 1.728-4.627 4.109l-2.197 6.599H45.097l1.085-5.239c0.551-2.66-0.435-5.103-3.323-5.469-2.578-0.328-3.714 1.728-4.625 4.109l-2.197 6.599H9.076c-1.761-3.081-1.761-13.74 0-16.821h81.882C92.66 18.59 92.696 29.167 90.935 32.268z" data-fill-palette-color="accent"></path><path fill-rule="evenodd" clip-rule="evenodd" fill="#8bd8bc" d="M25.965 16.202c-4.228 0-7.654 3.428-7.654 7.654s3.427 7.654 7.654 7.654c4.227 0 7.654-3.428 7.654-7.654S30.191 16.202 25.965 16.202zM25.965 28.767c-2.714 0-4.911-2.197-4.911-4.911s2.197-4.911 4.911-4.911c2.713 0 4.911 2.197 4.911 4.911S28.678 28.767 25.965 28.767z" data-fill-palette-color="accent"></path><path fill-rule="evenodd" clip-rule="evenodd" fill="#8bd8bc" d="M66.619 16.202c-4.226 0-7.653 3.428-7.653 7.654s3.428 7.654 7.653 7.654c4.227 0 7.654-3.428 7.654-7.654S70.846 16.202 66.619 16.202zM66.619 28.767c-2.714 0-4.91-2.197-4.91-4.911s2.196-4.911 4.91-4.911c2.715 0 4.911 2.197 4.911 4.911S69.334 28.767 66.619 28.767z" data-fill-palette-color="accent"></path></svg></g></svg></g></svg></g><defs></defs></svg><rect width="395.5199999999999" height="78.64224196814072" fill="none" stroke="none" visibility="hidden"></rect></g></svg></g></svg>